<svg width="150" height="150" viewBox="0 0 150 150" fill="none" xmlns="http://www.w3.org/2000/svg">
<path d="M21.454 83.406C19.192 83.406 17.336 82.768 15.886 81.492C14.436 80.216 13.711 78.505 13.711 76.359V62.7H17.684V76.04C17.684 77.1033 17.9837 77.9443 18.583 78.563C19.2017 79.1817 20.1587 79.491 21.454 79.491C22.7493 79.491 23.6967 79.1817 24.296 78.563C24.9147 77.9443 25.224 77.1033 25.224 76.04V62.7H29.226V76.359C29.226 78.505 28.501 80.216 27.051 81.492C25.601 82.768 23.7353 83.406 21.454 83.406ZM32.8313 62.7H36.8333V83H32.8313V62.7ZM67.7641 72.096V73.662C67.7641 76.562 66.8361 78.911 64.9801 80.709C63.1241 82.507 60.7267 83.406 57.7881 83.406C54.6561 83.406 52.0557 82.391 49.9871 80.361C47.9377 78.3117 46.9131 75.8177 46.9131 72.879C46.9131 69.921 47.9281 67.4173 49.9581 65.368C52.0074 63.3187 54.5401 62.294 57.5561 62.294C59.4507 62.294 61.1811 62.729 62.7471 63.599C64.3131 64.4497 65.5311 65.5903 66.4011 67.021L62.9791 68.993C62.4957 68.1617 61.7611 67.485 60.7751 66.963C59.8084 66.441 58.7257 66.18 57.5271 66.18C55.5937 66.18 53.9987 66.818 52.7421 68.094C51.5047 69.3507 50.8861 70.9457 50.8861 72.879C50.8861 74.793 51.5144 76.3783 52.7711 77.635C54.0471 78.8723 55.7291 79.491 57.8171 79.491C59.3637 79.491 60.6397 79.1527 61.6451 78.476C62.6697 77.78 63.3657 76.8327 63.7331 75.634H57.5851V72.096H67.7641ZM70.4366 83V61.83H74.1776V83H70.4366ZM89.9556 81.202C88.467 82.6713 86.6496 83.406 84.5036 83.406C82.3576 83.406 80.5403 82.6713 79.0516 81.202C77.5823 79.7133 76.8476 77.896 76.8476 75.75C76.8476 73.604 77.5823 71.7963 79.0516 70.327C80.5403 68.8383 82.3576 68.094 84.5036 68.094C86.6496 68.094 88.467 68.8383 89.9556 70.327C91.4443 71.7963 92.1886 73.604 92.1886 75.75C92.1886 77.896 91.4443 79.7133 89.9556 81.202ZM81.6906 78.621C82.4446 79.375 83.3823 79.752 84.5036 79.752C85.625 79.752 86.5626 79.375 87.3166 78.621C88.0706 77.867 88.4476 76.91 88.4476 75.75C88.4476 74.59 88.0706 73.633 87.3166 72.879C86.5626 72.125 85.625 71.748 84.5036 71.748C83.3823 71.748 82.4446 72.125 81.6906 72.879C80.956 73.633 80.5886 74.59 80.5886 75.75C80.5886 76.91 80.956 77.867 81.6906 78.621ZM103.259 68.094C105.212 68.094 106.875 68.8383 108.247 70.327C109.639 71.7963 110.335 73.604 110.335 75.75C110.335 77.896 109.639 79.7133 108.247 81.202C106.875 82.6713 105.212 83.406 103.259 83.406C101.229 83.406 99.6634 82.7003 98.5614 81.289V83H94.8204V62.7H98.5614V70.211C99.6634 68.7997 101.229 68.094 103.259 68.094ZM99.6924 78.708C100.446 79.462 101.403 79.839 102.563 79.839C103.723 79.839 104.68 79.462 105.434 78.708C106.208 77.9347 106.594 76.9487 106.594 75.75C106.594 74.5513 106.208 73.575 105.434 72.821C104.68 72.0477 103.723 71.661 102.563 71.661C101.403 71.661 100.446 72.0477 99.6924 72.821C98.9384 73.575 98.5614 74.5513 98.5614 75.75C98.5614 76.9487 98.9384 77.9347 99.6924 78.708ZM123.994 68.5H127.735V83H123.994V81.289C122.872 82.7003 121.297 83.406 119.267 83.406C117.333 83.406 115.671 82.6713 114.279 81.202C112.906 79.7133 112.22 77.896 112.22 75.75C112.22 73.604 112.906 71.7963 114.279 70.327C115.671 68.8383 117.333 68.094 119.267 68.094C121.297 68.094 122.872 68.7997 123.994 70.211V68.5ZM117.092 78.708C117.846 79.462 118.803 79.839 119.963 79.839C121.123 79.839 122.08 79.462 122.834 78.708C123.607 77.9347 123.994 76.9487 123.994 75.75C123.994 74.5513 123.607 73.575 122.834 72.821C122.08 72.0477 121.123 71.661 119.963 71.661C118.803 71.661 117.846 72.0477 117.092 72.821C116.338 73.575 115.961 74.5513 115.961 75.75C115.961 76.9487 116.338 77.9347 117.092 78.708ZM131.127 83V61.83H134.868V83H131.127Z" fill="white"/>
</svg>
